<svg xmlns="http://www.w3.org/2000/svg" xmlns:xlink="http://www.w3.org/1999/xlink" width="955px" height="957px" viewBox="85.91583251953125 103.03189086914062 427.6468811035156 428.50732421875" preserveAspectRatio="xMidYMid meet" >
<rect id="svgEditorBackground" x="0" y="0" width="1010" height="1000" style="fill:none; stroke: none;"/>
<circle id="e1_circle" cx="300" cy="318" style="stroke: #006bad; stroke-width:25px;fill:none;" r="200.804"/>
<text style="fill:#006bad;font-family:Verdana;font-size:150px;font-style:normal;font-weight:bold;" x="182.45208740234375" y="311.45135498046875" id="e2_texte" transform="matrix(1.09502 0 0 1.09502 -9.03371 -16.1376)">TE</text>
<g id="e5_group" transform="matrix(1 0 0 1 1.5 -0.3)"><polygon style="stroke: #006bad; stroke-width: 1px;fill:#006bad;" id="e4_polygon" points="238.676 384.9 268.976 414.6 298.976 384.3 328.676 414.6 358.676 384.6 388.676 414.6 418.676 384.6 418.376 414.3 388.676 444.6 358.676 414.6 328.676 444.6 298.976 414.6 268.976 444.6 238.676 414" transform="matrix(1.13281 0 0 1 -73.8271 -34.2)"/>
<polygon style="stroke: #006bad; stroke-width: 1px;fill:#006bad;" id="e1_polygon" points="238.909 432.2 269.209 461.9 299.209 431.6 328.909 461.9 358.909 431.9 388.909 461.9 418.909 431.9 418.609 461.6 388.909 491.9 358.909 461.9 328.909 491.9 299.209 461.9 269.209 491.9 238.909 461.3" transform="matrix(1.13281 0 0 1 -73.8271 -34.2)"/></g>
</svg>